<svg id="icons" enable-background="new 0 0 64 64" height="512" viewBox="0 0 64 64" width="512" xmlns="http://www.w3.org/2000/svg"><path d="m17.499 7.998c0 1.103-.897 2-2 2h-.001c-2.756.001-4.998 2.244-4.998 5v34.004c0 2.757 2.243 5 5 5h.001c1.102 0 1.997.896 1.997 1.996 0 .009.005.016.005.024v3.975c0 .002.001.004.001.005s0 .001 0 .001c0 2.204 1.793 3.997 3.996 3.997h18.005c2.203 0 3.996-1.793 3.996-3.997 0-.005-.003-.01-.003-.015v-3.972c0-.005.003-.01.003-.015 0-1.103.897-2 2-2h.001c2.756-.001 4.998-2.244 4.998-5v-20.996h2c.553 0 1-.447 1-1v-7.001c0-.553-.447-1-1-1h-2v-4.006c0-2.757-2.243-5-5-5h-.001c-1.102 0-1.997-.896-1.997-1.996 0-.009-.005-.016-.005-.024v-3.975c0-.002-.001-.004-.001-.005s0-.001 0-.001c0-2.204-1.793-3.997-3.996-3.997h-18.005c-2.203 0-3.996 1.793-3.996 3.997 0 .005.003.01.003.015v3.972c0 .004-.003.009-.003.014zm22.006 54.002h-18.005c-1.101 0-1.996-.896-1.996-1.997 0-.002-.001-.004-.001-.005s0-.001 0-.001v-3.999c0-.018-.009-.031-.01-.049-.009-.711-.214-1.371-.55-1.947h23.114c-.34.583-.549 1.25-.554 1.971 0 .011-.006.019-.006.029v3.995c0 .004.002.008.002.012-.002 1.098-.895 1.991-1.994 1.991zm11.995-40.996v5.001h-1v-5.001zm-3-6.006v34.004c0 1.654-1.346 3-3 3h-30c-1.654 0-3-1.346-3-3v-34.004c0-1.654 1.346-3 3-3h30c1.654 0 3 1.346 3 3zm-27.005-12.998h18.005c1.101 0 1.996.896 1.996 1.997 0 .002.001.004.001.005s0 .001 0 .001v3.999c0 .018.009.031.01.049.009.711.214 1.371.55 1.947h-23.115c.34-.583.549-1.25.554-1.971 0-.011.006-.019.006-.029v-3.995c0-.004-.002-.008-.002-.012.003-1.098.896-1.991 1.995-1.991z"/><path d="m15.5 12.998c-1.103 0-2 .897-2 2v34.004c0 1.103.897 2 2 2h30c1.103 0 2-.897 2-2v-34.004c0-1.103-.897-2-2-2zm29.988 36.004h-29.988v-34.004h30z"/><path d="m19.552 32.262c.019.066.036.129.067.189.011.021.011.043.022.063.037.063.084.114.132.165.01.011.016.022.025.032.082.081.178.141.279.188.025.012.05.021.076.03.11.04.225.068.343.069h.002.001c.115 0 .229-.028.342-.069.031-.012.06-.023.09-.038.026-.013.056-.02.082-.035l.485-.291v7.436c-.552.001-.999.447-.999 1s.447 1 1 1h6.996 3.998 6.996c.553 0 1-.447 1-1s-.447-.999-.999-1v-7.436l.485.291c.026.016.056.022.083.035.029.015.058.026.089.038.114.043.228.071.343.071h.001.002c.118-.001.232-.029.343-.069.026-.01.051-.019.076-.03.102-.048.197-.107.279-.188.01-.01.016-.021.025-.031.048-.052.095-.104.132-.166.012-.021.012-.043.022-.063.031-.061.049-.123.067-.189.018-.065.035-.128.039-.194.002-.023.014-.044.014-.067v-3c0-.041-.019-.075-.023-.114-.008-.069-.018-.135-.04-.2-.021-.062-.049-.116-.08-.172-.031-.055-.063-.105-.104-.154-.045-.054-.097-.097-.152-.139-.03-.024-.051-.058-.085-.078l-9.996-6.002c-.04-.024-.085-.027-.127-.045-.065-.028-.129-.058-.199-.071-.063-.012-.125-.01-.188-.01-.064 0-.126-.002-.189.01-.07.014-.133.043-.199.071-.042.018-.086.021-.126.045l-9.996 6.002c-.034.021-.055.054-.085.078-.056.042-.107.085-.152.139-.042.049-.073.1-.104.155s-.06.109-.08.171c-.022.065-.032.131-.04.2-.005.039-.023.073-.023.114v3c0 .023.012.044.014.067.001.064.018.126.036.192zm10.943-8.098 8.996 5.402v.667l-8.481-5.093c-.041-.024-.087-.028-.13-.046-.064-.028-.126-.057-.195-.069-.063-.013-.126-.011-.189-.011-.064 0-.126-.002-.189.011-.069.013-.132.042-.196.069-.043.019-.088.021-.129.046l-8.481 5.093v-.667zm-.999 15.838v-5.002h1.998v5.002zm7.995 0h-3.997v-6.002c0-.553-.447-1-1-1h-3.998c-.553 0-1 .447-1 1v6.002h-3.997v-8.637l6.996-4.201 6.996 4.201z"/></svg>